<svg width="272" height="272" viewBox="0 0 272 272" xmlns="http://www.w3.org/2000/svg">
	<circle fill="#3E4EB8" cx="136" cy="136" r="136" />
	<path d="M48 112.2h6.336v-6.12H48v6.12zm.36 45.36h5.544v-37.224H48.36v37.224zm18.432 0h5.544v-21.312c0-6.984 4.752-11.664 11.16-11.664 6.552 0 10.296 4.32 10.296 11.232v21.744h5.544v-23.112c0-8.856-5.256-14.904-14.256-14.904-6.408 0-10.296 3.24-12.744 7.272v-6.48h-5.544v37.224zm59.976.792c6.84 0 11.232-3.816 14.256-8.28v7.488h5.544V105h-5.544v22.464c-2.88-4.176-7.344-7.92-14.256-7.92-8.928 0-17.784 7.2-17.784 19.368v.144c0 12.24 8.856 19.296 17.784 19.296zm1.008-4.968c-7.056 0-13.104-5.616-13.104-14.4v-.144c0-9 5.904-14.328 13.104-14.328 6.912 0 13.464 5.76 13.464 14.328v.144c0 8.568-6.552 14.4-13.464 14.4zm34.488-12.168h29.52c.072-.864.072-1.44.072-1.944 0-10.944-6.336-19.728-17.352-19.728-10.296 0-17.856 8.64-17.856 19.44 0 11.592 8.352 19.44 18.576 19.44 7.056 0 11.592-2.808 15.336-6.984l-3.456-3.096c-3.024 3.168-6.624 5.256-11.736 5.256-6.552 0-12.312-4.536-13.104-12.384zm0-4.464c.792-7.2 5.688-12.528 12.096-12.528 7.344 0 11.232 5.76 11.88 12.528h-23.976zm33.768 20.808h6.192l11.592-15.192 11.52 15.192h6.408l-14.688-19.08 14.112-18.144h-6.192l-11.016 14.4-11.016-14.4h-6.336l14.04 18.288-14.616 18.936z" fill="#FFF" />
</svg>
