<svg width="128" height="128" viewBox="0 0 128 128" xmlns="http://www.w3.org/2000/svg">
	<circle fill="#FFF" cx="64" cy="64" r="64" />
	<path d="M16 51.918h3.448v-3.33H16v3.33zm.196 24.687h3.017v-20.26h-3.017v20.26zm10.03 0h3.02v-11.6c0-3.8 2.585-6.347 6.072-6.347 3.566 0 5.604 2.35 5.604 6.113v11.835h3.017V64.027c0-4.82-2.862-8.112-7.76-8.112-3.487 0-5.603 1.764-6.935 3.958v-3.527h-3.018v20.26zm32.642.43c3.723 0 6.113-2.076 7.76-4.505v4.075h3.016V48h-3.017v12.226c-1.567-2.273-3.997-4.31-7.76-4.31-4.858 0-9.677 3.918-9.677 10.54v.078c0 6.662 4.82 10.502 9.678 10.502zm.55-2.703c-3.84 0-7.133-3.056-7.133-7.837v-.078c0-4.898 3.213-7.798 7.132-7.798 3.762 0 7.328 3.134 7.328 7.797v.078c0 4.663-3.566 7.837-7.328 7.837zm18.77-6.622H94.25c.04-.47.04-.784.04-1.058 0-5.956-3.45-10.737-9.444-10.737-5.603 0-9.718 4.703-9.718 10.58 0 6.31 4.546 10.58 10.11 10.58 3.84 0 6.31-1.528 8.346-3.8l-1.88-1.686c-1.646 1.723-3.606 2.86-6.388 2.86-3.566 0-6.7-2.47-7.13-6.74zm0-2.43c.43-3.918 3.094-6.818 6.582-6.818 3.996 0 6.112 3.135 6.465 6.82H78.187zm18.376 11.325h3.37l6.31-8.268 6.27 8.268H116l-7.994-10.384 7.68-9.874h-3.37l-5.995 7.837-5.994-7.837h-3.448l7.64 9.953-7.954 10.305z" fill="#3E4EB8" />
</svg>
